<?xml version="1.0" encoding="UTF-8"?>
<svg id="Layer_1" xmlns="http://www.w3.org/2000/svg" version="1.1" viewBox="0 0 850.39 861.25">
  <!-- Generator: Adobe Illustrator 29.8.5, SVG Export Plug-In . SVG Version: 2.1.1 Build 2)  -->
  <defs>
    <style>
      .st0 {
        fill: #444345;
      }

      .st1 {
        fill: #231f20;
      }
    </style>
  </defs>
  <g>
    <path class="st0" d="M410.21,729.55c-.08.07-.15.13-.23.2.05,0,.11,0,.16,0,0-.07.06-.12.07-.19,0,0,0-.01,0-.02Z"/>
    <path class="st1" d="M350.41,637.52c5.83-10.28,10.85-21.07,15.06-32.44.07-.09.2-.18.29-.29,2.76-1.67,8.46-2.54,10.89-2.89,6.34-.93,12.89-1.01,18.45-.98l4.68.05c15.92.21,30.99.4,45.61-6.32,6.04-2.73,16.47-8.66,18.89-17.26,1.09-3.76.51-7.64-1.67-11.46-2-3.53-5.7-6.27-10.99-8.07-12.24-4.19-26.01-2.49-42.07,5.14-14.99,7.11-28.54,17.18-39.9,29.49,4.93-16.06,8.27-33.18,10.16-51.3,11.98,1.02,26.17-2.23,29.77-12,1.1-2.98,1.19-5.92.24-8.69l-.05-.14c-3.48-9.84-18.99-15.14-28.28-16.24-.04-2.31-.1-4.6-.2-6.91,7.68-2.11,15.11-3.85,22.18-5.35,3.17,2.94,6.37,5.79,9.58,8.42,6.1,4.99,12.32,9.4,18.52,13.16,4.47,2.73,9.83,5.62,15.55,6.36,4.37.56,7.92-.37,10.11-2.65,2.43-2.58,2.81-6.58,1.04-10.65-1.26-2.92-3.34-5.36-4.85-6.93-5.7-6.02-12.97-10.51-20.52-13.14,10.57-1.64,21.58-3.17,33.8-4.73,1.69,1.34,3.56,2.53,3.6,2.55,1.74,1.08,4.39,2.37,7.14,2.68,2.58.32,5.29-.04,7.69-.36l1.49-.19c1.19-.14,2.42-.4,3.54-.65,1.69-.36,3.3-.7,4.8-.69.98-.02,2.3.14,3.64.4,1.27.21,2.53.52,3.7.85.09.02.14.02.21.07,7.57,2.16,14.58,6.24,21.36,10.14,10.49,6.06,21.29,12.32,34.45,12.11,6.35-.09,12.67-3.03,16.11-7.5,2.66-3.45,3.53-7.59,2.48-11.95-.12-.44-.25-.88-.39-1.29,3.41-2.21,5.75-5.78,6.34-9.91.21-1.77-.12-3.4-.42-4.86-.35-1.41-.59-2.62-.27-3.67l.16-.45c.42-1.3.94-2.92.43-4.79-.45-1.68-1.59-2.9-2.53-3.92l-.34-.37c-1.73-1.95-2.99-4.15-4.24-7.4-.97-2.49-3.33-4.52-6.09-5.47-.03-2.26-.48-4.52-1.39-6.62-2.45-5.79-8.56-10.45-16.41-12.46-9.44-2.43-19.74-1.11-28.24,3.64-7.71,4.37-14.11,11.61-17.91,20.44-.4.88-.79,1.83-1.16,2.74-1.09,2.7-2.16,5.32-3.68,7.38l-1.27,1.1c-.92.8-2,1.47-3.31,1.95-.34.16-.69.26-1.07.39-.18.09-.4.16-.61.23-2.32.67-5.15.98-8.72,1.02-.7,0-1.44-.01-2.17-.03-3.56-.05-7.17-.09-10.43,1.47-2.52,1.19-4.24,3.28-5.88,5.29-.69.84-1.44,1.69-2.19,2.48-2.6.3-5.29.63-7.91.95,2.82-2.79,5.35-6.01,7.3-9.51,3.3-5.99,4.4-11.74,3.27-17.18-.71-3.39-2.63-6.09-5.42-7.54-2.91-1.56-6.43-1.57-9.64-.02-4.86,2.33-8.43,7.03-10.12,13.22-.79,2.8-1.11,5.74-1.44,8.58-.22,1.71-.44,3.43-.7,5.11-.43,2.36-2.83,7.78-5.07,10.27-17.74,2.67-36.07,6.26-54.2,11.24-.38-8.91-1.11-18.05-2.12-27.31.74-1.24,1.46-2.5,2.22-3.77,1.45-1.38,3.26-2.67,5.5-3.9,2.68-1.45,5.61-2.6,8.4-3.71,1.89-.74,3.83-1.53,5.72-2.41,7.23-3.26,12.98-7.15,17.61-11.76,5.02-5.02,10.07-13.17,9.27-20.91-.42-4.08-2.41-7.61-5.92-10.47l-.03-.03c-.96-.79-2.01-1.41-3.05-1.91,4.53-5.86,9.16-11.59,13.89-17.18,6.39-1.13,12.88-1.26,20.4-.35,2.41.27,4.8.63,7.21.95,5.81.83,11.83,1.67,17.78,1.73,8.46.08,15.66-1.51,21.43-4.75,3.3-1.87,10.98-6.99,10.28-14.07-.33-3.14-1.79-5.68-4.37-7.7-7.44-5.65-22.57-4.73-29.56-3.46-8.83,1.61-18.1,4.95-26.81,9.43,8.92-9.4,18.13-18.37,27.7-26.85,1.46-.02,2.93.02,4.41.11,3.68.15,7.49.35,10.99-.91,4.46-1.65,7.49-5.09,10.43-8.36.62-.76,1.24-1.46,1.9-2.13.1-.12.22-.21.29-.29,3.82-4.01,7.25-6.64,10.7-8.23.27-.07.52-.11.82-.15,5.44-1.08,11.13-.94,16.46.41,2.1,1.96,3.89,3.96,5.69,5.96,4.24,4.78,8.27,9.29,15.03,11.86,12.19,4.63,25.28,4.18,35.89-1.32,5.7-2.91,11.04-7.27,15.94-12.93l3.12-3.61c2.78-3.26,5.53-6.5,8.4-9.68,2.44-2.72,5.08-5.36,8.04-4.59l5.02,1.34-2.81-4.43c-4.16-6.65-8.23-12.36-14.11-14.75,5.09-4.91,6.33-12.2,6.76-19.61.05-1.17.68-2.01,1.43-3.06.87-1.13,1.81-2.41,2.11-4.29.69-4.05-2.79-7.14-5.32-9.36-.51-.42-1-.87-1.43-1.27-2.48-2.41-5.33-5.28-7.8-8.37-4.23-5.26-8.03-7.1-11.01-7.46.12-2.57-.32-4.92-1.32-7.1-2.07-4.55-6.1-7.37-10-10.13-2.93-2.06-5.64-3.99-7.49-6.52-.36-.54-.69-1.05-1.02-1.57-1.18-1.84-2.51-3.95-4.86-5.14-2.63-1.37-5.44-.96-7.7-.62l-.61.09c-3.56.48-6.52.3-8.99-.61-1.11-.42-2.18-1.01-3.34-1.62-1.87-.99-3.77-2.01-5.98-2.46-3.84-.81-7.81.36-10.27,3.05-.29.29-.6.67-.94,1.08-1.28,1.57-2.86,3.49-4.65,3.33-4.15-1.16-7.26,1.39-9.68,3.44-.6.48-1.18.98-1.76,1.43-.23.15-.44.27-.62.37l-.14.03s-.02.03-.05.06c-.72.29-1.43.24-2.43.15-1.14-.11-2.57-.21-4.12.32-1.42.49-2.28,1.48-3.08,2.38-.46.5-.89,1.02-1.31,1.21-1.5.86-3.03,1.21-4.63,1.6-3.07.74-6.61,1.59-9.03,6.06-2.5,4.56-3.63,10.33-3.29,16.68.41,7.57,2.1,13.76,3.73,19.7,1.31,4.76,2.7,9.68,3.44,15.53.13,1.03.29,2.13.47,3.3.72,4.62,1.54,9.85.88,14.99l-.1.06v.86s-.03.08-.07.14l-.06-.05c-.9,2.41-2.51,5.62-4.17,8.04-.59.92-1.23,1.71-1.81,2.35-.83.88-1.86,1.68-2.92,2.46-.68.51-1.42,1.02-2.16,1.53-1.3.87-2.61,1.75-3.81,2.76-.5.42-1,.83-1.56,1.25-2.41,1.96-5.14,4.19-6.95,6.79-1.95,2.77-2.68,6.3-3.01,8.8,0,.06-.22,3.55-.12,6.5-4.14,3.55-8.21,7.22-12.18,10.96,2.74-5.57,4.77-11,6.05-16.31.94-3.84,3.64-16.97-1.09-24.82-1.62-2.68-3.98-4.52-6.91-5.46-2.57-.79-4.93-.59-7.04.6-5.75,3.36-7.87,13.56-8.93,20.95-1.68,11.63-1.55,25.62.38,42.54-10.96,11.76-21.18,24.12-30.73,36.84-7.81.31-15.99,6.24-22.15,13.24-6.07,6.83-10.59,15.51-13.38,25.41-.52-3.29-.99-6.59-1.57-9.88l-.67-3.7c-.37-2.24-.79-4.48-1.15-6.72l.02-.03-.22-1.1c-.24-1.41-.48-2.82-.7-4.26-.23-1.35-.47-2.77-.71-4.18l-.09-.8c-.06-.25-.1-.47-.14-.75l-.11-.52c-2.41-15.47-4.27-31.3-3.8-46.69,3.47-3.32,7.72-5.77,13.46-7.53,1.78-.54,3.59-1.04,5.41-1.5,4.28-1.16,8.71-2.39,12.75-4.37,5.74-2.82,13.01-8.43,14.54-14.75.7-2.82.2-5.56-1.4-8.19-1.52-2.41-3.71-4.05-6.51-4.89-6.41-1.8-15.01,1.31-20.42,4.51-4.86,2.86-10.42,7.3-14.62,12.56,1.4-5.84,3.35-11.57,5.99-17.09,2.39-.76,5.28-2.33,5.33-2.39,1.71-.98,4.02-2.68,5.39-5.01,1.33-2.21,2.08-4.9,2.7-7.3l.42-1.5c.35-1.22.56-2.45.77-3.69.32-1.77.63-3.46,1.21-4.88.93-2.25,2.18-4.04,3.68-5.48.73-.76,1.59-1.42,2.46-2.02,2.96-2.04,6.56-3.23,10.51-4.26.87-.21,1.71-.45,2.49-.68,4.3-1.19,8.16-1.72,11.89-2.21,4.73-.6,9.61-1.26,15.11-3.32,4.67-1.71,8.41-4.38,10.91-7.63,2.51-3.33,2.01-6.26,1.57-8.86-.22-1.24-.42-2.43-.31-3.75.04-.31.23-.74.44-1.19.38-.86.87-1.91.78-3.25-.12-1.36-.68-2.45-1.12-3.29-.49-.98-.69-1.39-.5-2.21.14-.57.3-1.16.44-1.72.71-2.38,1.65-5.69-.61-8.56-.45-1.09.35-2.72.95-3.98.2-.37.37-.72.49-1.06,1.19-2.76.82-6.18-1.03-8.9-1.05-1.54-2.37-2.67-3.69-3.75-.75-.66-1.49-1.26-2.09-1.9-1.35-1.5-2.36-3.54-3.08-6.21l-.13-.5c-.44-1.82-1.04-4.1-2.98-5.74-1.66-1.45-3.68-1.8-5.33-2.08-.46-.09-.93-.18-1.37-.29-2.28-.56-4.46-1.95-6.74-3.43-3.19-2.07-6.47-4.22-10.46-4.33-1.76-.08-3.47.31-5.16,1.07-1.36-2.08-3.87-4.19-8.74-5.64-2.86-.83-5.72-2.06-8.2-3.16-.39-.17-.82-.38-1.31-.63-2.32-1.17-5.82-2.92-8.69-1.04-1.3.87-1.94,2.05-2.51,3-.5.95-.85,1.49-1.5,1.83-4.97,2.54-9.61,5.58-11.68,10.54-3.57-3.31-8.7-4.45-14.46-5.47l-5.06-.89,3.14,4.22c1.3,1.69.28,4.31-.8,6.82-1.39,3.08-2.8,6.11-4.26,9.14l-1.58,3.37c-2.52,5.37-3.94,10.71-4.26,15.83-.61,9.6,3.14,19.51,10.2,27.13.74.8,1.49,1.46,2.26,2.09,3.37,2.76,7.04,4.11,10.91,5.48,2.5.88,5.04,1.84,7.63,3.19.56.89,1.09,1.81,1.57,2.74l1.27,4.15c.4,1.35.58,2.76.55,4.24,0,.06,0,.14,0,.19-.01.67-.05,1.37-.16,2.1-.28,2.44-1.08,5.19-2.4,8.38-.29.68-.58,1.37-.91,2.03-1.46,3.23-2.95,6.56-2.73,10.48.17,3,1.49,5.78,2.77,8.48.45.95.88,1.94,1.28,2.89-12.03,22.58-11.4,50.32-9.13,71.21-5.52-7.48-13.9-13.7-20.27-17.12-8.43-4.57-26.42-10.65-34.3-1.22-2.54,3.11-3.27,6.74-2.05,10.51,1.17,3.62,4.05,7.05,7.52,9.89,2.86,2.34,6.11,4.27,9.16,5.46,4.53,1.81,9.56,3.06,14.51,4.3,11.07,2.79,22.47,5.71,29.32,14.77l1.47,8.43c2.01,11.64,4.1,23.64,5.49,35.51-8.14,13.63-15.71,27.14-22.83,40.3-1.94.74-3.9,1.42-5.84,2.22-9.08,3.83-17.68,8.3-25.73,13.22,2.78-5.49,4.82-11.01,6.14-16.48,1.6-6.74,2.75-20.66-3.41-29.92-2.66-4.02-6.31-6.57-10.9-7.66-16.61-3.83-24.69,15.96-26.64,26.99-1.3,7.23-1.23,15.21.15,24.34.62,3.9,1.51,7.98,2.62,12.14.24,1.02.63,2.12,1,3.3,1.1,3.38,2.37,7.13,1.61,10.16-.67.62-1.38,1.3-2.04,1.97-16.94,17.5-27.7,37.72-31.93,60.08-4.39,23.01-2.77,48.7,4.42,72.35-.75,1.3-1.56,2.56-2.31,3.85,1.88.92,3.76,1.84,5.67,2.73,8.86-15.19,17.36-30.52,25.47-45.81,10.22-19.31,20.23-39.22,29.93-58.42,8.52-16.91,17.16-34.02,26.09-51.03,2.22,1.28,4.43,2.65,6.67,4.05,5.96,3.66,12.11,7.48,19.07,9.87,1.15.36,2.39.69,3.67.96-4,36.62-14.58,69.62-30.95,97.29,1.02-3.68,1.97-7.52,2.74-11.54,3.77-20.02.46-32.29-9.6-35.47-14.18-4.56-21.43,19.51-22.72,24.37-1.95,7.43-2.88,15.65-2.95,26.61-.02,4.35.09,8.81.19,13.07l.1,4.21c.12,6.21.07,10.93-.21,15.27,0,.34-.02.81-.01,1.39-.01.67.01,2.15-.12,3.16-5.42,5.11-11.21,9.77-17.21,14.15,2.36.79,4.63,1.75,7.02,2.49,19.78-15.12,36.82-34.7,50.05-57.81ZM411.78,566.96c15.03-7.17,27.72-8.78,38.77-4.98,1.63.56,3.6,1.44,5.31,2.69-11.65.28-43.2,3.05-74.79,22.98,9.18-8.41,19.54-15.42,30.71-20.69ZM459.36,568.99c1.05,2.32,1.28,4.59.64,6.88-2.07,7.38-12.43,12.84-16.78,14.81-13.81,6.32-28.4,6.13-43.81,5.95l-4.71-.07c-5.72-.02-12.47.04-19.14,1.04-.36.05-.77.1-1.16.17,37.16-27.85,77-28.89,84.96-28.79ZM570.8,498.33c-2.76,3.57-7.84,5.91-12.99,5.98-11.83.17-21.59-5.48-31.92-11.46-6.57-3.77-13.26-7.65-20.67-10.07-.81-.32-2-.77-2.97-1.36-.15-.08-.25-.15-.4-.23,9.1-.18,16.26,2.28,23.19,4.7,7.73,2.68,15.7,5.46,25.58,4.13,5.49-.75,12.13-4.54,14.38-10.23.51.56,1.04,1.09,1.47,1.54l.89.88c2.53,2.55,4.51,4.52,5.26,7.6.72,3.12.14,5.99-1.82,8.51ZM546.68,453.26c-4.28-1.32-8.94-1.2-13.14-.07-4.26,1.08-7.78,3.48-11.15,5.83-3.39,2.37-6.49,4.98-9.63,7.51-.93.74-1.8,1.48-2.77,2.2.55-.67,1.12-1.37,1.68-2.12,1.28-1.63,2.46-3.33,3.64-4.98l.79-1.1c3.47-4.83,7.01-9.36,12.41-12.22,6.76-3.54,16.96-5.39,25.36.07.38.26.79.55,1.14.83,3.21,2.63,4.68,6.4,5.34,8.55.22.71.39,1.49.62,2.26.31,1.32.66,2.73,1.21,4.1-8.76-2.6-17.97-2.95-27.44-.94-7.64,1.66-14.71,3.3-21.65,5.15.23-.15.46-.3.69-.45,3.41-2.26,6.72-4.6,10.19-6.62,3.46-2.07,7.19-3.54,10.81-4.95,3.71-1.38,7.61-2.22,11.87-2.71.08-.03.14-.03.15-.12.01-.08-.06-.19-.15-.22ZM536.11,467.43c9.47-2.01,18.56-1.51,27.18,1.46-.44.8-.76,1.71-1.01,2.62-.17.54-.29,1.07-.35,1.61-.05.39-.13.81-.21,1.24-.18,1.07-.33,2.11-.62,2.99-1.34,4.39-7,7.77-11.5,8.36-8.84,1.17-15.94-1.3-23.46-3.9-5.68-1.98-11.5-3.97-18.37-4.69,1.3,0,2.63.06,3.92.19,4.75.29,9.48,1.06,14.21,2.11,4.71.99,9.46,2.79,14.63,2.9,5.12.16,10.41-1.39,13.63-4.86.05-.06.06-.14.06-.2-.05-.14-.2-.21-.28-.18-4.65,1.29-8.98,1.54-13.5.9-4.53-.69-9.35-1.29-14.21-1.97-4.92-.68-9.84-1.01-14.72-.88-2.77.11-5.54.42-8.24.83,10.66-3.46,21.07-5.96,32.86-8.5ZM567.19,455.87c.58-1.17,1.19-2.37,1.62-3.82.08-.23.13-.43.21-.65,1.09.5,2.11,1.29,2.46,2.3,1.01,2.57,2.47,5.9,5.2,8.92l.4.43c.64.72,1.25,1.36,1.39,1.91.18.63-.11,1.51-.42,2.42l-.16.45c-.64,2.1-.2,4.11.21,5.85.26,1.19.52,2.32.33,3.33-.37,2.81-1.86,5.22-4.04,6.84-1.21-1.67-2.61-3.11-4.03-4.51l-.87-.9c-1.69-1.67-3.1-3.22-3.1-4.47.35-2,.83-3.25,1.97-3.78l2.93-1.29-2.63-2.3c-1.78-1.5-2.52-3.81-3.14-6.26.24-1.6.88-2.92,1.67-4.46ZM497.13,472.53c.01-.08.09-.17.16-.26.13-.23.35-.49.67-.81.13-.09.25-.24.4-.35.15-.12.3-.24.48-.39.17-.15.37-.33.6-.48,1.08-.86,2.29-1.82,3.11-3.08,2.99-2.8,4.54-6.67,6.04-10.4.37-.91.72-1.79,1.09-2.65,3.51-8.1,9.31-14.66,16.32-18.64,7.56-4.25,16.67-5.43,25.03-3.26,6.33,1.64,11.2,5.19,13.08,9.58,1.17,2.7,1.33,5.85.45,8.62-.32,1.05-.77,1.99-1.3,2.97-1.7-3.62-4.17-6.57-7.21-8.57-10.12-6.58-22.06-4.5-29.89-.37-6.17,3.21-10.04,8.14-13.79,13.38l-.79,1.1c-1.16,1.62-2.32,3.3-3.55,4.86-1.1,1.48-2.15,2.76-3.2,3.84-.46.5-.98,1-1.5,1.44-.3.24-.6.48-.91.71-.33.27-.68.51-1.07.78-1.2.81-2.52,1.58-3.92,2.23-.13.09-.29.15-.45.22-.03-.17.04-.31.12-.48ZM470.83,476.55c1.45-1.77,2.83-3.46,4.59-4.3,2.39-1.15,5.36-1.1,8.52-1.04.76,0,1.55,0,2.31,0,2.51.01,4.71-.18,6.66-.47-.51,1.28-.56,2.85.35,4.75.28.57.59,1.11,1.07,1.7.45.56.98,1.09,1.69,1.67.26.21.33.32.33.32.02.11.07.44.08.69l.04.47c.02.17.07.3.1.47-.74-.07-1.46-.12-2.07-.09-1.94.01-3.86.39-5.68.79-1.12.25-2.16.47-3.18.6l-1.53.16c-2.23.31-4.55.65-6.56.41-1.5-.2-3.32-.92-5.21-2.03-.35-.23-1.84-1.36-3.08-2.27.56-.61,1.06-1.22,1.55-1.83ZM444.82,470.85c.29-1.8.53-3.6.72-5.33.33-2.83.64-5.5,1.35-8.02,1.37-5.09,4.23-8.91,8.04-10.75,1.97-.96,3.99-1.01,5.61-.17,1.47.76,2.45,2.25,2.86,4.24,1.14,5.49-.93,10.84-2.88,14.34-2.97,5.34-7.39,10.02-12.18,12.99.34-.35.71-.73,1.07-1.11,1.9-1.99,2.76-4.68,3.85-7.14,1.03-2.51,1.85-5.09,2.47-7.74.58-2.68,1.02-5.38.97-8.14l-.43-.06c-.66,2.52-1.53,5.01-2.64,7.36-1.02,2.37-2.2,4.66-3.57,6.79-1.39,2.16-3.15,3.98-4.36,6.19-.56,1.14-1.27,2.21-1.79,3.44-.17.34-.34.74-.51,1.09-.63.12-1.27.17-1.9.29,1.73-3.1,2.99-6.48,3.32-8.25ZM413.42,489.82c.06,0,.11,0,.11,0,1.42.43,2.82.95,4.15,1.55,3.64,1.52,7.12,3.49,10.49,5.67,3.39,2.14,6.44,4.78,9.82,6.87,3.42,2.12,6.83,4.23,10.63,6.08l.29-.29c-2.32-3.59-5.32-6.54-8.51-9.2-3.2-2.71-7-4.56-10.66-6.44-3.72-1.88-7.52-3.53-11.47-4.73-.3-.1-.59-.14-.85-.21,1.28-.26,2.58-.46,3.9-.7,10.2.58,21.16,5.66,29.01,13.97,1.91,2.05,3.13,3.78,3.86,5.44.52,1.2,1.54,4.22-.36,6.21-1.75,1.87-5.16,1.65-6.54,1.44-4.83-.65-9.43-3.1-13.65-5.68-8.43-5.1-16.86-11.51-25.12-18.99,1.67-.33,3.3-.7,4.89-1ZM522.52,317.78l-1.35-.52c-1.18-.45-2.39-.59-3.58-.61-1.49-.02-2.95.16-4.31.37-1.44.22-2.52.31-3.46.3-1.39-.02-2.37-.39-3.14-1.34-.08-.09-.17-.13-.24-.24,2.52-1.04,5.1-1.8,7.65-2.33.48-.1.96-.25,1.44-.33h0c3.39,1.14,6.23,2.44,8.73,3.84.54.3,1.08.6,1.59.92-1.13-.06-2.24-.08-3.33-.06ZM539.52,277.86c-1.43.73-2.81,1.54-4.19,2.34-2.22,1.29-4.41,2.64-6.56,4.05-.26.17-.5.35-.76.53-2.82,1.88-5.54,3.86-8.22,5.94,0,0,0,0-.01.01.02-.02.02-.05.03-.08,0-.01,0-.02.01-.03.08-.42.11-.8.16-1.2.11-.91.17-1.79.17-2.61.51-.63.99-1.29,1.47-1.95,1.11-1.5,2.18-3.04,3.16-4.7.66-.62,1.29-1.22,1.94-1.82.52-.49,1.05-.99,1.57-1.48,1.06-.96,2.03-2.01,3-3.08.72-.8,1.45-1.6,2.19-2.38.58-.61,1.18-1.21,1.8-1.78,2.48-2.24,5.21-4.33,8.12-6.12.85-.55,1.76-1.02,2.64-1.52,2.12-1.19,4.31-2.28,6.61-3.24.07-.03.08-.12.07-.19,0-.01.02-.02.01-.04-.02-.11-.14-.22-.28-.18-3.53.71-6.96,1.83-10.27,3.25-2.57,1.17-5.03,2.57-7.41,4.09-.62.4-1.27.76-1.88,1.17-.88.62-1.79,1.28-2.69,1.93-.01,0-.02.01-.03.02.42-.97.75-1.96,1.12-3.01l.1-.26c1.59-2.2,3.31-4.31,5.03-6.22,1.4-1.56,2.8-2.99,4.11-4.16,5.26-4.72,12.26-6.33,17.96-4.19l.36.12.15.05s.09.05.12.06c.1.05.2.1.37.19.26.11.54.25.82.38.48.23,1.01.51,1.6.82.17.1.32.17.5.27l.11.06.38.2c.07.04.16.08.23.12,2.11,1.17,4.38,2.37,6.7,2.94.49.12.98.26,1.47.31-4,11.24-11.55,20.74-22.52,28.18-4.71,3.2-9.25,6.19-13.75,9.08-7.27,4.67-14.43,9.03-21.97,13.14,0-.01.01-.02.02-.03.44-.74.84-1.42,1.22-2.07.21-.32.4-.69.59-.98.42-.75.79-1.53,1.17-2.31.66-1.34,1.27-2.7,1.8-4.06,0,0,0-.02.01-.03,3.23-3.44,6.74-6.64,10.4-9.7.66-.55,1.29-1.14,1.97-1.69,3.16-2.56,6.49-4.98,9.96-7.19,1.24-.79,2.54-1.51,3.84-2.23.88-.49,1.76-.95,2.67-1.4,1.36-.67,2.73-1.32,4.16-1.87.08-.03.16-.08.24-.11.03-.01.07-.03.1-.04-4.09,1.07-7.92,2.79-11.66,4.68ZM573.78,286.08s0-.04-.01-.06c-.09-.02-.26-.02-.27.07,0,0,0,0,0,0-2.38,3.63-5.35,6.73-8.66,9.41-3.31,2.73-6.9,5.09-10.71,7.06-.83.43-1.69.82-2.55,1.19-.64.28-1.29.54-1.94.79-2.46.96-4.97,1.81-7.42,2.74-2.1.8-4.23,1.49-6.44,2.11-2.1-.26-4.21-.49-6.47-.68-.06,0-.12-.02-.19-.02-.1-.01-.21-.02-.3-.04-1.04-.17-2.13-.28-3.28-.26-.95-.06-2.14-.11-3.38-.13-.62,0-1.24-.02-1.88,0-.14-.02-.26-.02-.39.02.02,0,.03-.02.05-.03,4.14-2.37,8.2-4.82,12.25-7.34,6.35-3.95,12.69-8.09,19.34-12.63,6.58-4.46,11.98-9.62,16.23-15.42,2.81-3.84,5.13-7.95,6.91-12.34h0c.61,1.03,1.28,1.97,1.91,2.77.23.32.49.61.73.92.68.88,1.37,1.77,2.08,2.59l.62.75c.48.53.89,1.07,1.25,1.55l.05.06.27.34c.11.19.25.35.43.59.58.83,1.05,1.68,1.53,2.53,1.97,3.5,3,7.02,3,10.24,0,.35.06.72.04,1.06-.04.53-.17,1.04-.25,1.56-.27,1.84-.71,3.66-1.41,5.39-.92,2.29-2.24,4.45-3.86,6.46-3.2,3.97-7.65,7.31-13.08,9.73-1.29.59-2.6,1.08-3.83,1.47-.37.12-.75.21-1.13.32-1.41.41-2.85.76-4.42,1.02-1.33.23-2.68.3-4.03.39-2.38.16-4.77.2-7.16.11.01,0,.02,0,.03-.01,1.06-.44,2.08-.92,3.07-1.45.07-.04.14-.06.21-.1.81-.4,1.59-.83,2.36-1.32,1.04-.61,2.06-1.27,3.09-1.94,1.05-.68,2.01-1.46,3.01-2.2,1.37-1.02,2.7-2.08,3.97-3.21,1.11-.99,2.25-1.97,3.27-3.05,3.01-3.22,5.74-6.76,7.44-10.8.06-.07,0-.17-.06-.25ZM616.04,307.71c-1.04.94-1.96,1.93-2.7,2.78-.71.79-1.39,1.61-2.09,2.4-2.13,2.43-4.25,4.86-6.36,7.34l-3.09,3.58h0s-.06.06-.09.1c-4.53,5.25-9.48,9.29-14.7,11.96-2.09,1.08-4.32,1.84-6.59,2.49-.32.09-.61.27-.93.35-7.85,2-16.53,1.45-24.75-1.67-5.59-2.15-9.08-6.02-13.08-10.5-.43-.49-.88-.99-1.33-1.49-1.53-1.7-3.17-3.43-5.01-5.14-2.72-2.52-5.9-4.99-9.94-7.18,0,0,0,0,0,0,.06,0,.11,0,.16,0,.05,0,.1,0,.15,0l.48.04,1.88.15c.2.02.4.04.6.05h0c.27.06.52.17.78.24.58.16,1.17.3,1.72.54,2.43,1.02,4.69,2.72,7.12,4.57,1.28,1,2.64,2.02,4.02,2.95,1.05.7,2.07,1.19,3.08,1.58,3.64,1.39,7.02.97,10.07.47.09-.02.19-.03.28-.04.09-.01.18-.02.27-.04,1.98-.29,3.87-.54,5.81-.39.47.04.95.07,1.43.17,1.07.22,2.07.7,3.06,1.29,1.21.73,2.4,1.65,3.62,2.62.3.23.6.47.9.71,2.13,1.66,4.51,3.32,7.45,4.03.72.17,1.46.31,2.25.35,2.71.12,5.48-.46,8.17-1.64,2.61-1.15,5.15-2.87,7.51-5.14,1.99-1.91,3.83-4.15,5.59-6.3.98-1.18,1.95-2.35,2.94-3.46,1.58-1.78,3.21-3.42,5.02-4.75,1.87-1.39,3.93-2.46,6.32-3.01h0ZM620.23,303.11c-.4-.05-.81-.05-1.22-.07-.33-.02-.66-.06-.98-.06-.04,0-.09.01-.13.01-.7.01-1.39.07-2.07.2-6.54,1.1-10.88,5.02-14.73,9.41-.98,1.12-1.94,2.27-2.89,3.41-1.08,1.32-2.15,2.58-3.22,3.79-.67.76-1.35,1.51-2.05,2.19-1.83,1.77-5.21,4.43-9.33,5.33-1.07.23-2.18.38-3.34.32-1.61-.08-3.04-.69-4.44-1.55-1.11-.69-2.2-1.52-3.35-2.44-.86-.68-1.78-1.38-2.73-2.06-1.55-1.09-3.26-2.03-5.21-2.56-.27-.07-.51-.19-.79-.25-3.4-.69-6.43-.21-9.12.21-1.81.28-3.44.52-5.02.45-.95-.04-1.9-.23-2.85-.58-.73-.26-1.46-.59-2.22-1.09-.6-.4-1.19-.87-1.79-1.32-.66-.49-1.32-.95-1.95-1.45-.26-.18-.49-.36-.73-.54-.14-.11-.29-.22-.44-.32h.01s1.02.12,1.02.12c4.27.41,8.77.71,13.28.51,1.94-.09,3.88-.24,5.81-.57.86-.14,1.65-.31,2.45-.49,1.28-.28,2.52-.6,3.69-.99.17-.06.36-.13.53-.19.43-.15.86-.3,1.31-.48,3.45-.09,6.93-.35,10.32-.88h0c.06,0,.11-.03.17-.04,6.16-.96,12.1-2.9,17.23-5.96,1.66-.99,3.23-2.08,4.7-3.31-.02.01-.05.02-.07.04-.95.64-1.96,1.19-2.97,1.72-.21.11-.4.25-.61.35-1.24.62-2.52,1.18-3.82,1.7-1.08.43-2.14.91-3.26,1.25-3.81,1.17-7.8,1.86-11.82,2.11-1.23.06-2.44.09-3.64.13.01,0,.02-.02.04-.02,6.65-3.76,11.66-8.97,14.49-14.98.28.03.6.07.89.1.91.1,1.89.23,3.04.4.75.13,1.45.26,2.2.39.14.03.3.05.45.08,2.43.45,5.02.81,7.62.65,1.47-.09,2.93-.31,4.36-.9.43-.13.82-.35,1.21-.56,1.17.1,2.25.37,3.28.78,3.34,1.33,6.03,4.18,8.72,8.02ZM596.39,243.9c.21-.65.45-1.31.62-1.96.78.02,1.55.23,2.32.57,1.51.67,2.96,1.84,4.24,3.14.64.65,1.23,1.33,1.77,1.99,1.03,1.31,2.14,2.52,3.25,3.71,1.28,1.38,2.51,2.66,3.75,3.88.4.39.82.84,1.2,1.21.47.48,1.05.95,1.6,1.45.94.83,1.75,1.59,2.4,2.32.63.7,1.06,1.37,1.24,2,.08.28.17.57.13.84-.07.41-.25.78-.46,1.15-.26.48-.59.94-.96,1.43-.79,1.08-1.7,2.37-2.04,4.17-.06.33-.14.64-.16,1.01-.25,4.39-.8,7.9-1.73,10.71,0,.03-.01.06-.02.09-.03.1-.08.19-.12.29-.88,2.5-2.1,4.44-3.71,5.96-1.3,1.23-2.84,2.22-4.7,2.99-2.46,1-5.23.74-8.16.24-.61-.11-1.23-.21-1.85-.33-.62-.11-1.26-.22-1.9-.32-.14-.02-.28-.05-.42-.07-.95-.15-1.82-.27-2.65-.37h0c.47-1.76.82-3.5.95-5.29.44-5.12-1.39-10.89-5.04-16.25h0c.4-.1.81-.2,1.23-.31.06-.02.12-.03.18-.04.72-.18,1.41-.46,2.11-.71,1.85-.66,3.68-1.41,5.61-1.91,1.62-.46,3.31-.78,5.01-1.04,1.08-.16,2.16-.32,3.25-.41,2.83-.31,5.7-.34,8.68-.18.06,0,.16-.06.18-.15,0,0-.01,0,0-.01.02-.11-.06-.23-.18-.28h0c-.51-.15-1.05-.23-1.57-.35-1.83-.44-3.68-.77-5.56-.98-.6-.07-1.19-.17-1.79-.23-.42-.03-.84,0-1.26-.02-2.59-.1-5.18-.05-7.72.25-1.99.23-4.03.44-5.98.95-.94.25-1.87.55-2.74.99-.65.34-1.32.7-1.97,1.1,0,0,0,0,0,0,0,0-.01-.02-.02-.04,0-.02,0-.03,0-.03l-.69-.81h0s-.01-.03-.01-.03c-.43-.5-.85-1.03-1.29-1.58,0,0,0,0,0,0,1.17-.97,2.4-2.01,3.63-3.11,4.34-3.87,8.73-8.55,10.91-14.07.19-.53.32-1.03.49-1.55ZM565.11,213.66c.82-.63,1.67-1.2,2.58-1.68.89-.47,1.81-.89,2.77-1.18.29.04.55.11.8.27.73.37,1.36,1.11,1.98,1.98.31.43.61.89.92,1.37.37.59.77,1.22,1.17,1.78,2.35,3.23,5.57,5.52,8.71,7.71,3.5,2.47,6.81,4.79,8.32,8.12,1.05,2.31,1.19,5.06.43,8.23-.25,1.05-.61,2.15-1.06,3.29-1.44,3.64-4.04,6.93-6.98,9.89-1.97,1.99-4.08,3.83-6.11,5.52,0,0,0,0,0,0,0,0,0,0,0,0-.58-.9-1.01-1.74-1.32-2.54,0-.02-.02-.04-.02-.06-.3-.79-.46-1.55-.52-2.32,0-.02-.01-.03-.01-.05l-.1-1.48-.12-1.8h0s-3.02,1.21-3.02,1.21c-1.13.46-2.4.26-3.76-.18-.09-.03-.16.02-.25-.01-1.47-.52-3.06-1.39-4.77-2.33l-.25-.16c-.1-.06-.22-.13-.34-.19-.21-.11-.41-.21-.62-.35-.03-.36-.05-.72-.02-1.09.04-2.11.29-4.19.63-6.26.11-.69.2-1.39.34-2.07.95-4.4,2.49-8.69,4.59-12.7.5-.95.99-1.9,1.56-2.81.02-.08.02-.22-.07-.3-.1-.08-.23-.04-.28.01,0,0,0,0,0,0-.79.89-1.52,1.83-2.24,2.79-2.7,3.61-4.85,7.68-6.31,12.05-.94,2.72-1.6,5.62-2.09,8.57,0,0,0,0,0,0-.96-.37-1.95-.61-2.96-.81-1.22-.23-2.46-.38-3.71-.39,0,0-.01,0-.02,0,.97-2.89,1.52-5.79,2.05-8.47.18-.87.36-1.75.51-2.59l.1-.45c.53-2.48,1.06-5.01,1.75-7.46.68-2.45,1.52-4.83,2.64-7.01,1.2-2.39,3-4.44,5.11-6.06ZM535.36,212.46c.7-.49,1.32-1.07,1.88-1.66.56-.59,1.05-1.19,1.49-1.73.19-.24.37-.43.56-.64.09-.09.17-.21.26-.3.93-1.02,2.28-1.64,3.74-1.87.84-.14,1.71-.18,2.57,0,1.54.34,3.08,1.16,4.7,2,1.23.66,2.54,1.35,3.94,1.87.67.26,1.38.41,2.08.58,1.32.31,2.69.54,4.15.59-.52.47-.95,1.03-1.42,1.54-1.3,1.42-2.48,2.94-3.33,4.66-1.69,3.32-2.73,6.91-3.6,10.51-.39,1.64-.77,3.28-1.12,4.9l-.04.3-.02.18c-.19.82-.36,1.75-.53,2.68-.52,2.58-1.1,5.43-2.04,8.2-.23.67-.46,1.35-.73,2-.32.07-.62.2-.94.28-3.44.96-6.77,2.69-9.58,5.23-.87.74-1.73,1.59-2.61,2.53,0,0,0-.02,0-.03.17-.63.33-1.26.49-1.88.29-1.1.58-2.2.86-3.29.66-2.38,1.28-4.78,1.91-7.12l.1-.33.18-.6c.8-2.88,1.74-6.27,2.26-9.79.97-6.57.46-13.61-5.21-18.79,0,0,0,0,.01,0ZM509.98,232.89c.14-.51.35-1.01.52-1.52.17-.48.3-.96.5-1.43.15-.36.35-.69.51-1.04.28-.6.55-1.21.88-1.79,2.08-3.68,5.02-6.82,8.24-8.44.34-.15.7-.37,1.05-.61.09-.06.18-.09.27-.16.06-.04.11-.09.17-.13.62-.47,1.22-.95,1.77-1.44,1.25-1.04,2.23-1.8,3.12-2.27,1-.54,1.87-.69,2.81-.38.07.02.13.02.2.05.14.06.3.16.45.24.17.09.34.16.53.28.04.02.08.06.12.09.31.21.62.44.96.73.19.16.35.34.53.5,6.44,6.08,3.56,16.34,1.44,23.91l-.17.62-.1.37c-.66,2.38-1.28,4.78-1.93,7.21-.13.49-.27,1-.4,1.5-.69,2.6-1.41,5.22-2.17,7.86-.57,1.99-1.15,3.98-1.8,5.95l-.02.03-.07.18-.13.33c-1.24,3.61-2.58,6.84-4.04,9.82-1.14,2.34-2.36,4.54-3.69,6.57,0,0,0-.02,0-.03-.72-4.52-1.89-8.93-3.12-13.06-.44-1.47-.88-2.91-1.32-4.29l-.28-.91-.47-1.51c-.52-1.62-1.05-3.26-1.56-4.9-1.68-5.47-3.14-11.04-3.45-16.52-.09-1.8.16-3.72.66-5.63.02-.06.02-.12.04-.19ZM498.38,262.12c-1.66-5.97-3.19-11.64-3.59-18.76-.07-1.34-.05-2.64.02-3.91.24-4.01,1.18-7.62,2.81-10.56.62-1.17,1.34-1.89,2.12-2.46.23-.17.45-.39.7-.52,1.07-.57,2.29-.87,3.71-1.2,1.65-.39,3.49-.87,5.42-1.85,0,0,.01,0,.02,0-.69,1.01-1.29,2.1-1.84,3.2-1.13,2.23-1.91,4.6-2.39,6.99-.37,1.85-.6,3.7-.5,5.49.11,1.92.34,3.83.66,5.73.94,5.56,2.68,11.04,4.41,16.41.05.14.09.28.13.42l.07.22.68,2.14c.27.84.53,1.73.8,2.6,1.7,5.52,3.28,11.59,3.89,17.71.07.69.19,1.37.23,2.06,0,.11,0,.24,0,.35.03.95-.06,2-.29,3.29-.18.87-.37,1.83-.64,2.82-.04.13-.1.26-.14.39-.86,2.84-2.15,5.93-3.77,8.79-.11.25-.26.49-.43.77-.02.03-.03.06-.06.1-.08.15-.19.32-.28.47-1.3,2.2-3.02,4.92-5.19,7.2-.48-1.31-1.3-2.08-2.25-2.96l-.25-.2-.21-.17c-.1-.11-.19-.26-.27-.43-.23-.54-.31-1.39-.17-2.45.24-.66.46-1.32.65-2,.24-.83.44-1.67.61-2.55l.06-.34c.04-.11.05-.25.05-.39l.17-1.06h0c.2-1.75.22-3.49.18-5.22-.03-1.66-.15-3.28-.32-4.86-.22-2.07-.5-4.07-.77-5.87-.2-1.12-.33-2.18-.48-3.17,0-.01,0-.03,0-.04,0-.08-.02-.14-.03-.22-.4-3.07-.96-5.88-1.59-8.55-.61-2.56-1.28-5-1.94-7.4ZM476.66,332.59c.36-2.86,1.16-5.36,2.35-7.01,1.5-2.17,3.91-4.13,6.25-6,.52-.44,1.05-.89,1.53-1.28,1.08-.86,2.28-1.68,3.53-2.55.61-.42,1.23-.84,1.78-1.26,1.42-1.02,2.79-2.04,3.96-3.27.75-.79,1.51-1.78,2.22-2.84.32.46.67.89,1.06,1.26l.49.45q1.05.95,1.1,1.87c.06,1.11.22,2.02.45,2.99.26.8.54,1.51.92,2.16,1.75,3.04,4.04,4.18,6.42,4.48-2.27,1.59-4.56,3.6-6.99,6.12-.22.21-.41.44-.66.67-.65.73-1.3,1.46-1.98,2.22-2.78,3.07-5.32,5.98-8.87,7.3-2.67.97-5.88.82-9.28.66-1.42-.1-2.87-.16-4.31-.18-.01-2.15,0-5.24.03-5.8ZM447.1,322.39c2.05-11.48,5.09-14.81,7.28-15.59,1.34-.46,2.8-.14,4.52,1.03l.42.34c4.11,3.37,4.03,11.26,3.56,15.77-.46,4.82-1.7,9.68-3.69,14.94-1.72,4.47-3.96,8.7-6.32,12.84,1.54-7.52,2.36-15.4,2.32-23.29-.04-.86-.75-1.64-1.62-1.76-.89-.1-1.54.44-1.61,1.31-.65,9.91-2.34,19.59-5.35,30.28-.09-1.72-.16-3.48-.25-5.2-.25-5.2-.52-10.57-.47-15.82.05-5.83.44-10.56,1.2-14.84ZM470.83,366.02c6.95-1.94,13.35-2.62,19.48-2.12,3.91.33,7.97.88,11.02,2.66.52.28.96.59,1.38.93,1.16.95,1.83,2.03,2.03,3.22.51,2.99-1.8,6.2-4.17,8.24-10.83,9.44-24.99,7.27-40.01,4.98-2.74-.39-5.5-.81-8.26-1.18,2.12-.11,4.26-.16,6.45-.21,1.23-.06,2.49-.1,3.75-.13,12.13-.47,22.43-2.38,31.57-5.87,1.04-.41,1.46-1.52.98-2.64-.47-1.06-1.62-1.62-2.7-1.29-10.91,3.31-21.97,5.09-34.82,5.59-5.88.24-11.37.6-16.51,1.63,9.31-5.48,19-10.77,29.81-13.82ZM422.7,415.47c.15.41.29.82.36,1.26,2.41,11.29-9.3,21.66-21.03,27.6-2.3,1.17-4.93,2.23-7.7,3.31-3.53,1.43-7.2,2.9-10.41,4.73,4.5-4.91,10.16-9.01,15.74-12.95,9.18-6.57,18.64-13.34,23.04-23.96ZM390.51,423.22c3.81-5.18,8.12-9.28,12.77-12.13,3.92-2.37,9.93-3.81,14.48-1.64.66.3,1.29.72,1.84,1.16.29.24.52.48.76.72-6.86,11.33-15.93,18.81-24.72,25.16-.97.66-1.94,1.32-2.96,2.04-4.64,3.24-9.71,6.82-13.41,11.21,2.44-10.92,6.08-19.49,11.24-26.53ZM446.67,255.97c-.31.71-.68,1.48-.78,2.47-.17,1.85.13,3.45.37,4.86.37,2.3.62,3.76-.85,5.76-2.04,2.7-5.23,4.89-9.16,6.34-5.09,1.9-9.49,2.48-14.18,3.11-3.9.5-7.93,1.04-12.52,2.33-.72.23-1.54.44-2.38.62-3.44.92-7.64,2-11.43,4.2l-.91.52c-.07.09-.17.15-.25.18l-.33.21-.02.03c-.97.66-1.87,1.43-2.68,2.23-.23.15-.47.25-.65.34-.32.13-.53.19-.7.2-.11,0-.26-.01-.4-.04l-.34-.18c-.79-.35-1.45-.65-2.23-.75.61-1.34,1.42-2.72,2.46-4.25.41-.63.88-1.27,1.3-1.85l.14-.17c2.11-2.84,4.6-5.36,6.93-6.9.46-.3.92-.6,1.39-.85.34-.16.63-.31.98-.41,4.75-1.74,9.79-2.33,15.16-2.93,1.57-.22,3.15-.38,4.73-.6,6.79-.95,14.43-2.37,19.33-7.63,1.17-1.23,2.01-2.58,2.8-3.88.56-.95,1.13-1.84,1.77-2.63.25-.38.88-.69,1.54-1.03.39-.21.84-.43,1.3-.73,0,.06.05.14.06.19,0,.25-.24.82-.43,1.25ZM413.74,245.68c-.98,3.03-2.59,6.57-4.47,9.79l-.2.18.03.03c-3.08,2.92-5.58,5.77-7.7,8.7.3-.82.57-1.62.87-2.44,1.18-3.74,2.19-7.53,2.78-11.46.49-3.87.68-8.04-.67-11.9.9,3.94.23,7.85-.72,11.5-.99,3.7-2.43,7.23-4.02,10.69-2.17,4.68-4.7,9.16-7.55,13.43-1.64,1.48-3.26,3.26-4.66,5.17l-.17.2c-.12.14-.25.37-.4.55.94-10.2,2.47-19.87,4.52-31.1,1.81-10.02,5.98-18.26,12.36-24.55,1.21,1.86,2.95,3.34,4.43,4.55l.39.32c.92.71,1.82,1.44,2.56,2.24.1.08.16.13.33.32,3.02,3.39,3.89,8.81,2.28,13.8ZM422.44,250.38c1.48-1.22,2.99-2.41,4.47-3.63l.57-.5c4.74-3.89,11.17-9.26,17.26-6.02,2.39,1.28,2.36,2.22,1.36,5.82-.19.62-.37,1.3-.52,1.95-.1.45-.15.84-.18,1.26h-.06c-.02,1.01-.42,1.31-1.94,2.11-.94.49-2.02,1.02-2.85,2.04-.75.99-1.36,1.99-1.97,3-.75,1.18-1.48,2.33-2.35,3.27-4.02,4.33-10.87,5.62-16.97,6.45-1.55.19-3.1.38-4.65.57-3.41.37-6.89.82-10.33,1.55,2.22-3.23,4.92-6.41,8.4-9.68l.35-.3c3.02-2.77,6.23-5.39,9.4-7.89ZM438.9,218.85c.66,1.22,1.42,2.33,2.3,3.29.81.91,1.71,1.64,2.56,2.38,1.09.89,2.1,1.76,2.75,2.74.98,1.43,1.17,3.29.57,4.74-.1.26-.25.57-.43.86-.39.8-.9,1.89-1.19,3.1-8.37-3.6-15.94,2.64-21,6.85l-.57.5c-1.48,1.22-2.97,2.38-4.44,3.6-.6.48-1.21.95-1.81,1.43.13-.29.27-.66.36-.97,1-3.12,1.18-6.36.69-9.43,1.9-1.94,4.12-3.52,6.13-4.94.61-.42,1.2-.81,1.73-1.2l.3-.24c3.36-2.4,6.81-4.91,9.46-8.23,1.09-1.34,1.96-2.86,2.59-4.48ZM407,205.07c2.59-2.64,5.15-3.94,7.59-3.84,2.66.09,5.22,1.75,8,3.53,2.53,1.63,5.15,3.34,8.25,4.08.53.14,1.1.22,1.66.34,1.22.22,2.32.44,2.96.97.1.08.2.21.27.32.33,3.52-.74,7.2-3.01,9.97-2.35,2.93-5.45,5.15-8.75,7.55l-.28.21c-.53.39-1.1.75-1.65,1.17-1.58,1.08-3.24,2.25-4.86,3.65-.62-1.34-1.43-2.58-2.38-3.65,1.76-1.23,3.42-2.54,4.92-3.98,3.34-3.1,5.92-6.91,7.66-11.01.02-.08,0-.19-.1-.27-.1-.08-.23-.04-.3.04-2.57,3.53-5.71,6.59-9.2,9.02-1.76,1.23-3.6,2.3-5.58,3.15-.16.06-.32.13-.48.19l-.9-.74c-2.31-1.89-3.94-3.37-4.01-5.13,0-.72-.39-1.43-1.04-1.87-.6-.44-1.41-.57-2.08-.34-.99.36-2.08.38-3.2.24,1.36-4.81,3.17-10.17,6.51-13.6ZM380.51,196.22c1.75-.9,2.53-2.25,3.15-3.39.4-.75.76-1.32,1.27-1.68.82-.54,2.77.42,4.29,1.18.52.28,1.04.56,1.52.76,2.6,1.15,5.63,2.42,8.79,3.35,2.27.7,4.96,1.87,6.03,3.77-.63.51-1.28,1.04-1.88,1.71-4.08,4.14-6.17,10.49-7.64,15.69-.24-.1-.5-.17-.74-.27l-.82-.24c-.21-.07-.42-.15-.65-.19-.06-1.89-.26-3.75-.61-5.55-1.12-5.58-3.47-10.9-6.91-15.36,3.23,6.48,4.24,13.57,3.22,19.86-.11,0-.2-.02-.32-.07-4.43-.62-8.43-.05-11.55,1.66-1.07.58-2.06,1.28-3.02,1.99-.26-.41-.49-.84-.79-1.33-.33-.51-.66-1.03-.97-1.57-1.54-2.38-2.99-4.68-3.03-7.04-.12-5.68,2.77-9.29,10.67-13.31ZM364.92,256.18c-3.04-4.28-5.41-8.99-6.83-13.94-1.5-4.92-1.77-10.09-.62-14.97l-.42-.15c-1.89,4.67-2.11,10.12-1.14,15.43,1.05,5.27,3.18,10.47,6.05,15.29,2.48,4.12,5.33,8.24,9.01,11.54-2.49-1.21-4.9-2.07-7.23-2.9-4.29-1.57-8.01-2.86-11.14-6.25-6.19-6.66-9.46-15.31-8.95-23.68.31-4.65,1.64-9.48,3.94-14.39l1.55-3.34c1.45-3.08,2.88-6.14,4.27-9.22.82-1.86,1.97-4.51,1.72-7.28,5.44,1.15,8.54,2.67,10.24,5.9,0,.33.01.64,0,.98.07,3.65,2.02,6.7,3.76,9.43.3.49.63,1,.93,1.49.56.89,1.02,1.71,1.41,2.41-5.26,6.23-6.69,15.06-6.03,22.39.62,6.52,3.17,12.25,5.34,16.55,0,.06.07.11.08.16.56,1.09,1.14,2.15,1.7,3.23l.07.11c-2.78-2.76-5.46-5.58-7.72-8.79ZM373.59,251.62c-.29,1.47-.48,2.95-.65,4.47-1.43-3.3-2.67-7.03-3.06-11.14-.76-8.39,1.54-18.93,10.25-23.6,2.94-1.63,6.44-1.58,8.92-1.2.92.12,1.79.3,2.7.56.53.14,1.09.31,1.68.5l.89.29c1.48.48,3.07.96,4.67,1.25-6.13,6.64-10.16,15.04-11.96,25.11-1.78,9.66-3.21,18.54-4.18,27.6-.66-1.56-1.39-3.03-1.94-4.11-.32-.65-.67-1.28-.99-1.88l-.28-.52c-.63-1.2-1.32-2.39-1.95-3.58-.94-4.16-.98-8.57-.76-13.1.31-7.32,2.18-14.53,5.28-21.21-4.1,6.06-7.14,12.99-8.62,20.57ZM374.26,299.64c.32-.71.63-1.43.95-2.14,1.01-2.42,1.75-4.63,2.23-6.72,1.01,1.32,2.55,2.33,4.82,2.63.63.08,1.28.08,2.03.01.74-.12,1.45-.32,2.25-.59.37-.13.51-.17.51-.17.12.05.46.23.79.35l.46.23c.18.1.39.18.63.28-.4.69-.76,1.32-1.03,1.98-.75,1.77-1.1,3.76-1.45,5.71-.22,1.18-.42,2.28-.71,3.3l-.41,1.55c-.59,2.23-1.23,4.58-2.26,6.3-.76,1.32-2.2,2.62-4.06,3.72-.37.19-2.14.97-3.56,1.6-.39-.9-.8-1.77-1.21-2.64-1.15-2.4-2.23-4.69-2.35-6.83-.15-2.89,1.09-5.66,2.4-8.57ZM390.51,336.09c-.51-.95-1.58-1.34-2.51-.93-7.59,3.31-14.09,7.84-19,13.19,3.25-6.27,9.1-12.5,16.41-17.3,4.57-2.96,9.18-4.72,13.72-5.23,2.39-.23,6.67-.22,8.87,2.4,2.31,2.81,1.34,6.68-.21,9.1-5.21,8.26-15.07,11.02-24.64,13.67l-1.54.44c-4.67,1.32-9.77,3.03-13.84,5.77,5.52-7.08,12.22-13.89,22.01-18.45,1.05-.5,1.2-1.73.73-2.66ZM349.04,401.08c-3.14-1.01-6.69-1.79-10.42-2.6-9.52-2.06-20.25-4.43-25.83-11.57-1.05-1.34-1.67-2.68-2.1-4.05,9.38,1.51,19.34,3.63,29.21,8.61,8.43,4.18,15.26,9.67,21.73,15.59-3.57-2.39-7.68-4.39-12.59-5.98ZM310.32,378.92c.64-3.8,4.03-6.56,8.83-6.99,5.14-.45,11.51.88,17.98,3.79,10.14,4.51,22.03,14.38,26.5,24.98.09.61.19,1.22.24,1.8l.06.39c-13.79-13.56-35.43-23.3-53.61-23.96ZM375.93,503.66c-5.23-.3-10.59-.17-15.98.32,5.34-1.94,10.64-3.63,15.87-5.17.04,1.59.09,3.23.11,4.85ZM374.31,471.8c.64,7.02,1.13,14.03,1.37,20.88-5.45,1.61-10.9,3.36-16.28,5.28,4.84-8.8,9.81-17.5,14.9-26.15ZM348.35,509.49h0s0,0,0,0ZM345.4,511.15l3.04-.57h.28c2.03-.39,4.06-.72,6.1-1.04l1.76-.26c2.1-.27,4.18-.52,6.26-.7l.53-.05c.56-.03,1.14-.09,1.76-.12,3.37-.25,6.14-.36,8.74-.33,8.78.15,15.49,1.46,21.1,4.11,4.86,2.32,8.1,5.12,9.59,8.33-12.86,6.28-27.85,1.53-41.08-2.69-1.24-.39-2.55-.82-3.85-1.26-5.64-1.89-12.19-4.05-18.42-4.69,1.4-.27,2.83-.5,4.2-.74ZM312.38,468.51c4.19,2.41,7.63,7.85,8.77,13.92,1.26,6.46.47,13.59-2.35,21.82-2.72,7.92-6.99,14.57-10.66,19.72-2.85,2.04-5.63,4.13-8.32,6.3,6.44-17.84,12.61-40.85,9.82-62.88.94.23,1.83.58,2.73,1.12ZM288.28,508.79c-1.55-15.54,1.32-35.51,14.5-40.8,1.09-.42,2.18-.69,3.2-.83.34,12.51-.67,23.96-3.05,35.07-1.63,7.5-3.92,14.95-6.19,22.12-.99,3.31-2.04,6.68-3.01,10.11-.26-1.32-.59-2.62-.93-3.91-1.78-6.41-3.72-14.01-4.52-21.75ZM264.94,589.05c5.75-9.32,12.35-18.44,20.9-25.28,5.91-4.73,11.97-7.1,18.09-7.1,2.93.02,6.62.56,9.13,2.67-3.25,3.84-6.48,6.93-10.78,9.38-3.72,2.06-7.81,3.71-11.71,5.27-1.2.48-2.34.95-3.53,1.43-7.29,3.01-17.46,8.1-23.15,16.89.34-1.08.66-2.18,1.06-3.26ZM263.45,668.02c-3.49-17.37-6.2-37.2-3.58-57.39.34-2.64.78-5.28,1.29-7.87,3.07-5.45,9.06-9.57,17.93-12.27,3.26-.97,6.79-1.48,10.21-1.99,4.41-.67,8.96-1.31,13.18-3,1.8-.76,4.07-1.96,6.32-3.47-14.42,28.64-29.22,57.69-45.35,85.99ZM313.38,571.26c-3.72,5.07-9.22,8.91-15.55,10.87-3.15.97-6.58,1.42-9.86,1.89-3.01.4-6.13.81-9.13,1.66-.81.21-1.62.47-2.46.71,1.54-1.17,3.16-2.22,4.99-3.15,3.36-1.81,7-3.25,10.57-4.66,1.75-.7,3.51-1.4,5.28-2.13l-.03-.03c7.07-3,14.52-6.86,18.41-13.14.62,2.45-.11,5.05-2.23,7.98ZM319.61,560.63c-.28-.57-.51-1.15-.91-1.71-2.02-3.11-4.98-5.19-8.77-6.2-7.51-1.97-16.94.85-22.51,4.3-4.85,2.98-9.08,6.7-12.69,10.73,3.34-5.72,7.16-11.18,11.52-16.31,11.71-13.72,25.94-24.36,41.11-32.82,4.17.74,8.06,2.08,11.77,3.9-6.66,12.66-13.13,25.42-19.53,38.1ZM358.63,528.28c-1.4-.85-2.8-1.76-4.18-2.69-5.37-3.47-10.83-7.02-16.65-9.21,8.11-.41,17.38,2.81,25.73,5.66,4.01,1.39,7.78,2.68,11.33,3.59,13.59,3.45,23.66,3.2,30.72-.84-.08,5.61-5.7,8.34-8.32,9.31-12.35,4.61-24.98,2.67-38.63-5.82ZM329.42,643.45l.16-1.57c1.28-12.06,1.46-24.92.59-39.27-.14-2.06-.16-6.88,2.5-8.1.33-.07.64-.06.95-.05.22-.01.46.03.66.05.34.04.66.11,1.02.2,10.12,3.23,7.71,22.18,6.21,30.17-2.33,12.56-6.13,23.09-11.4,32.03-1.12,1.51-2.24,3.07-3.43,4.52,1.45-5.9,2.14-12.13,2.75-17.99ZM315.14,674.14c.25-4.31.32-8.91.2-14.93l-.13-4.23c-.07-4.24-.2-8.61-.17-12.9.06-10.63.95-18.54,2.82-25.6,1.44-5.37,4.21-12.62,7.9-17.32-.07,1.01-.11,2.1-.04,3.27.86,14.15.68,26.77-.58,38.6l-.16,1.57c-1,9.81-2.19,20.64-7.04,28.8-.87.94-1.87,1.82-2.8,2.76Z"/>
  </g>
  <g>
    <path class="st1" d="M184.19,177.85l-1.77-2.42c4.28-3.11,6.2-5.69,5.8-7.75l-42.14-57.78c-1.84-1.02-4.89.03-9.15,3.15l-1.75-2.42,29.3-21.37,1.75,2.42c-4.27,3.12-6.2,5.7-5.79,7.75l18.68,25.63,25.5-18.61-18.68-25.61c-1.82-1.01-4.87.04-9.14,3.15l-1.77-2.42,29.3-21.36,1.77,2.42c-4.28,3.11-6.2,5.69-5.8,7.73l42.14,57.8c1.84,1.01,4.89-.04,9.15-3.15l1.75,2.42-29.3,21.36-1.75-2.42c4.27-3.11,6.2-5.69,5.79-7.75l-20.6-28.26-25.52,18.61,20.61,28.26c1.84,1.01,4.87-.04,9.14-3.15l1.77,2.4-29.3,21.37Z"/>
    <path class="st1" d="M308.11,101.73c5.8-2.15,9.53-6.32,11.2-12.5,1.67-6.17.95-13.45-2.14-21.8l-15.62-42.14c-1.46-1.48-4.58-1.33-9.39.46l-1.04-2.8,21.33-7.91,1.04,2.8c-4.79,1.78-7.26,3.71-7.41,5.79l14.64,39.46c4.28,11.56,4.9,21.14,1.89,28.72-3.02,7.59-8.41,12.83-16.17,15.7-21.19,7.84-36.04.3-44.53-22.63l-14.62-39.46c-1.49-1.48-4.71-1.3-9.67.54l-1.04-2.8,34.01-12.59,1.04,2.8c-4.96,1.84-7.51,3.8-7.68,5.87l15.31,41.34c3.36,9.07,7.48,15.42,12.39,19.07,4.9,3.65,10.38,4.34,16.46,2.1Z"/>
    <path class="st1" d="M353.41,88.16l-.12-2.98c5.11-.22,8.05-1.31,8.82-3.24l-3.23-71.45c-.94-1.85-3.96-2.66-9.07-2.43l-.14-2.98,25.71-1.16,33.23,64.69L435.88,1.17l26.01-1.17.12,2.98c-5.27.23-8.31,1.33-9.1,3.26l3.22,71.45c.97,1.85,4.09,2.66,9.36,2.43l.14,2.98-36.22,1.63-.14-2.98c5.27-.23,8.31-1.33,9.1-3.26l-2.87-63.78-28.68,71.04-7.11.32-35.71-68.99,2.91,64.63c.94,1.86,3.96,2.68,9.09,2.44l.12,2.98-22.73,1.02Z"/>
    <path class="st1" d="M481.8,89.22l.64-2.91c5.16,1.1,8.37.83,9.62-.84l15.01-69.93c-.47-2.04-3.29-3.62-8.45-4.72l.64-2.91,35.46,7.59-.64,2.93c-5.16-1.1-8.37-.83-9.64.84l-14.99,69.93c.47,2.04,3.27,3.6,8.45,4.72l-.64,2.91-35.46-7.61Z"/>
    <path class="st1" d="M566.23,23.69l67.2,29.45-5.54,12.63-2.73-1.2c1.84-4.16,1.5-7.57-.98-10.2l-18.21-7.98-29.12,66.41c.06,2.1,2.49,4.2,7.33,6.31l-1.2,2.75-33.21-14.57,1.2-2.73c4.83,2.13,8.04,2.5,9.6,1.1l29.12-66.41-18.1-7.94c-3.62-.03-6.32,2.04-8.16,6.21l-2.73-1.2,5.54-12.63Z"/>
    <path class="st1" d="M660.58,69.17l58.22,44.64-8.39,10.95-2.36-1.81c2.76-3.62,3.26-7,1.48-10.16l-15.78-12.1-44.11,57.55c-.46,2.04,1.41,4.67,5.61,7.88l-1.82,2.37-28.77-22.06,1.81-2.37c4.2,3.22,7.22,4.35,9.07,3.37l44.13-57.55-15.68-12.03c-3.51-.9-6.64.47-9.4,4.09l-2.37-1.82,8.39-10.95Z"/>
  </g>
  <g>
    <path class="st1" d="M0,443.87l2.26-.21c.37,4,1.31,6.27,2.8,6.81l54.22-5.08c1.38-.8,1.88-3.2,1.5-7.21l2.26-.21,2.57,27.49-2.25.21c-.39-4-1.33-6.27-2.82-6.81l-24.04,2.25,2.24,23.93,24.04-2.25c1.38-.8,1.88-3.2,1.5-7.21l2.26-.21,2.57,27.49-2.26.21c-.37-4-1.31-6.27-2.82-6.81l-54.22,5.08c-1.37.8-1.86,3.2-1.49,7.21l-2.26.21-2.58-27.48,2.26-.22c.39,4,1.31,6.28,2.82,6.81l26.52-2.49-2.25-23.93-26.51,2.49c-1.38.8-1.88,3.2-1.5,7.21l-2.26.21-2.57-27.49Z"/>
    <path class="st1" d="M12.34,534.49l2.2-.59c1.05,3.88,2.36,5.96,3.94,6.23l52.55-14.26c1.22-1.02,1.3-3.48.25-7.36l2.2-.59,7.23,26.65-2.2.59c-1.06-3.88-2.37-5.96-3.94-6.23l-52.56,14.26c-1.22,1.02-1.3,3.48-.25,7.36l-2.18.59-7.23-26.65Z"/>
    <path class="st1" d="M97.13,592.89c-2.53-5.51-7.19-8.81-14.01-9.9-6.81-1.09-14.01.12-21.62,3.6-8.86,4.06-14.59,8.74-17.22,14.03-2.61,5.29-2.83,10.33-.64,15.12,1.27,2.76,2.71,5.11,4.32,7.07l21.15-9.69c1.04-1.22.72-3.65-.95-7.3l2.06-.95,11.52,25.1-2.07.95c-1.67-3.66-3.31-5.5-4.9-5.5l-16.53,7.58c-2.55-.18-5.59-1.57-9.14-4.2-3.53-2.62-6.5-6.53-8.88-11.72-4.07-8.86-4.56-17.54-1.45-26.01,3.09-8.49,8.51-14.51,16.25-18.06,6.1-2.8,12.29-3.65,18.54-2.54,6.27,1.09,11.71,3.52,16.32,7.28,4.63,3.76,8.15,8.26,10.55,13.52.86,1.86,1.48,4.53,1.86,7.95.37,3.42.65,5.3.79,5.63.36.76,1.19.84,2.5.25l1.04,2.26-13.82,7.52-.98-2.17c2.5-1.63,4.34-4.65,5.47-9.1,1.15-4.43,1.09-8.01-.15-10.73Z"/>
    <path class="st1" d="M65.92,664.23l1.82-1.37c2.4,3.22,4.39,4.67,5.94,4.34l43.62-32.61c.76-1.39-.07-3.71-2.49-6.93l1.82-1.37,16.54,22.12-1.82,1.35c-2.42-3.22-4.39-4.67-5.95-4.34l-19.33,14.46,14.39,19.25,19.34-14.46c.75-1.39-.08-3.71-2.49-6.93l1.82-1.35,16.53,22.11-1.82,1.35c-2.4-3.22-4.39-4.67-5.94-4.34l-43.62,32.61c-.76,1.41.07,3.71,2.47,6.93l-1.81,1.37-16.54-22.11,1.82-1.37c2.4,3.22,4.39,4.67,5.95,4.34l21.33-15.95-14.4-19.25-21.33,15.95c-.75,1.41.08,3.71,2.49,6.93l-1.82,1.37-16.53-22.11Z"/>
    <path class="st1" d="M190.28,711.79l45.11,32.96-6.19,8.48-1.84-1.34c2.04-2.8,2.36-5.38.94-7.76l-12.22-8.93-32.57,44.6c-.3,1.56,1.16,3.52,4.4,5.9l-1.34,1.84-22.3-16.29,1.35-1.84c3.24,2.37,5.56,3.18,6.96,2.4l32.57-44.58-12.15-8.88c-2.69-.61-5.04.48-7.08,3.27l-1.84-1.34,6.19-8.48Z"/>
    <path class="st1" d="M218.33,807.22l1.04-2.03c3.58,1.85,5.99,2.29,7.25,1.33l25.05-48.37c.07-1.59-1.68-3.31-5.25-5.15l1.04-2.03,24.52,12.7-1.05,2.02c-3.56-1.85-5.98-2.28-7.23-1.31l-25.05,48.35c-.07,1.6,1.67,3.31,5.25,5.16l-1.05,2.02-24.51-12.69Z"/>
    <path class="st1" d="M265.69,830.46l.75-2.14c3.8,1.3,6.25,1.38,7.36.23l17.65-51.53c-.17-1.57-2.15-3.02-5.95-4.32l.73-2.15,42.51,14.57-3.41,9.94-2.15-.75c1.27-3.69,1.31-6.08.12-7.17l-18.81-6.45-8.06,23.55,11.86,4.07c1.59-.15,3.01-2.06,4.28-5.74l2.14.73-5.61,16.39-2.15-.73c1.26-3.69,1.31-6.08.15-7.17l-11.87-4.06-8.88,25.9,21,7.19c1.96-.17,4.24-1.78,6.82-4.87l2.04.7-5.87,9.1-44.65-15.31Z"/>
    <path class="st1" d="M335.78,852.37l.33-2.25c3.98.58,6.41.21,7.28-1.13l7.88-53.88c-.46-1.53-2.68-2.58-6.66-3.16l.33-2.25,25.87,3.78c8.7,1.27,15.05,3.84,19.07,7.72,4.02,3.87,5.73,7.87,5.12,12.01-.58,3.94-2.17,7.22-4.79,9.86-2.61,2.65-6.17,4.34-10.66,5.07l10.51,27.57c.5,1.6,2.75,2.71,6.75,3.29l-.33,2.25-4.61-.68c-5.65-.83-9.75-1.75-12.34-2.79-2.58-1.04-4.38-2.86-5.38-5.5l-9.65-24.83-4.2-.62-3.52,24.11c.44,1.53,2.66,2.58,6.64,3.16l-.33,2.25-27.31-3.99ZM364.76,796.31l-3.92,26.9,3.55.51c4.89.72,8.78.18,11.68-1.63,2.91-1.79,4.75-5.37,5.54-10.73.61-4.14-.4-7.44-3.01-9.9-2.61-2.47-6.46-4.07-11.57-4.82l-2.26-.33Z"/>
    <path class="st1" d="M460.32,860.39l-.33-2.25c3.99-.58,6.2-1.63,6.66-3.15l-7.8-53.9c-.87-1.33-3.29-1.71-7.28-1.13l-.32-2.25,28-4.06c8.64-1.24,15.46-.51,20.48,2.18,5.01,2.71,7.81,6.13,8.42,10.27.77,5.36-.69,9.98-4.38,13.86-3.7,3.89-9.71,6.45-18.05,7.65l-9.17,1.33,3.48,24.11c.87,1.34,3.3,1.71,7.28,1.13l.33,2.25-27.32,3.96ZM472.14,798.4l3.88,26.9,5.72-.83c5.52-.79,9.26-2.44,11.21-4.96,1.95-2.5,2.55-6.3,1.82-11.36-1.23-8.51-7.3-11.96-18.23-10.38l-4.4.64Z"/>
    <path class="st1" d="M539.47,846.47l-.76-2.15c3.8-1.33,5.77-2.78,5.92-4.36l-18-51.39c-1.12-1.15-3.56-1.05-7.36.28l-.76-2.14,24.69-8.66c8.28-2.9,15.12-3.58,20.48-2,5.34,1.56,8.73,4.32,10.11,8.27,1.31,3.74,1.42,7.4.33,10.95-1.09,3.56-3.45,6.7-7.11,9.43l22.12,19.55c1.17,1.2,3.67,1.12,7.5-.21l.75,2.14-4.39,1.55c-5.38,1.88-9.46,2.97-12.22,3.24-2.78.29-5.22-.51-7.33-2.36l-20.06-17.52-4,1.41,8.05,22.99c1.12,1.13,3.56,1.04,7.36-.29l.76,2.14-26.05,9.14ZM539.16,783.38l8.99,25.64,3.38-1.19c4.67-1.63,7.86-3.92,9.6-6.86,1.74-2.94,1.71-6.97-.08-12.08-1.38-3.95-3.8-6.41-7.25-7.37-3.47-.97-7.62-.61-12.48,1.1l-2.15.76Z"/>
    <path class="st1" d="M620.47,804.69c-8.51-2.4-15.06-7.41-19.65-15.01-4.58-7.61-6.02-15.71-4.31-24.34,1.71-8.62,6.39-15.23,14.01-19.83,7.62-4.6,15.64-5.65,24.08-3.15,8.42,2.5,14.93,7.55,19.52,15.15,4.58,7.61,5.92,15.75,4.03,24.44-1.91,8.7-6.5,15.24-13.79,19.65-7.43,4.47-15.38,5.51-23.9,3.09ZM611.96,781.95c2.54,4.2,5.36,7.86,8.45,10.95,3.09,3.11,6.7,5.32,10.8,6.64,4.09,1.33,7.97.88,11.63-1.33,2.79-1.68,4.74-3.85,5.84-6.5,1.1-2.64,1.45-5.52,1.01-8.63-.44-3.11-1.22-6.12-2.33-9.02-1.12-2.91-2.58-5.85-4.36-8.82-2.5-4.13-5.33-7.77-8.51-10.92-3.16-3.15-6.79-5.38-10.89-6.71-4.1-1.31-7.94-.9-11.53,1.27-2.79,1.68-4.74,3.87-5.83,6.54-1.09,2.68-1.41,5.58-.97,8.68.43,3.11,1.22,6.12,2.33,9.03,1.12,2.9,2.57,5.84,4.36,8.81Z"/>
    <path class="st1" d="M693.95,766.86l-1.56-1.66c2.86-2.66,4.02-4.74,3.51-6.24l-37.09-39.72c-1.5-.66-3.69.33-6.53,3l-1.56-1.67,17.89-16.71c6.96-6.5,14.7-9.69,23.24-9.6,8.53.1,15.96,3.52,22.27,10.29,6.34,6.79,9.33,14.41,8.99,22.88-.35,8.46-3.8,15.75-10.34,21.86l-18.82,17.58ZM667.81,709.05l38.49,41.23,4.14-3.85c3.6-3.37,5.09-7.91,4.46-13.63-.64-5.73-4.17-12.04-10.6-18.93-6.49-6.96-12.67-10.92-18.54-11.89-5.87-.98-10.8.39-14.76,4.1l-3.19,2.97Z"/>
    <path class="st1" d="M772,677.49c2.73-3.84,3.3-8.05,1.71-12.66-1.59-4.61-5.15-8.88-10.67-12.81l-27.85-19.87c-1.56-.32-3.47,1.12-5.73,4.29l-1.85-1.33,10.07-14.1,1.85,1.31c-2.26,3.18-3,5.44-2.2,6.81l26.08,18.61c7.64,5.45,12.14,11.21,13.48,17.29,1.34,6.08.18,11.67-3.48,16.8-9.98,14-22.56,15.6-37.72,4.79l-26.1-18.61c-1.56-.3-3.51,1.19-5.84,4.46l-1.85-1.31,16.03-22.48,1.85,1.33c-2.33,3.27-3.11,5.59-2.32,6.99l27.31,19.48c5.99,4.28,11.32,6.52,15.96,6.72,4.65.19,8.39-1.71,11.27-5.72Z"/>
    <path class="st1" d="M760.25,579.61c-2.51,5.52-2.17,10.8,1.01,15.85,3.19,5.05,8.63,9.31,16.32,12.8,8.93,4.05,16.54,5.55,22.8,4.5,6.25-1.05,10.59-4.22,13.01-9.55,1.46-3.22,1.7-6.67.7-10.33-1.01-3.66-2.62-6.59-4.87-8.8l3.01-3.51c2.94,3.15,4.9,6.9,5.88,11.28.99,4.38.25,9.32-2.26,14.84-3.99,8.81-10.07,14.61-18.23,17.41-8.16,2.8-16.2,2.42-24.08-1.16-9.14-4.14-15.13-10.58-17.99-19.33-2.86-8.74-2.42-17.22,1.31-25.43.86-1.91,2.43-4.05,4.69-6.43,2.26-2.37,3.49-3.77,3.66-4.16.36-.79-.11-1.49-1.44-2.08l1.04-2.26,14.26,5.51-.98,2.17c-2.87-.83-6.25-.29-10.12,1.6s-6.45,4.25-7.72,7.08Z"/>
    <path class="st1" d="M769.96,549.34l13.2-54.29,10.2,2.49-.54,2.21c-3.36-.81-5.87-.12-7.52,2.08l-3.58,14.72,53.65,13.05c1.56-.32,2.82-2.42,3.77-6.32l2.21.54-6.53,26.81-2.21-.52c.95-3.91.8-6.37-.44-7.36l-53.65-13.05-3.55,14.62c.46,2.71,2.36,4.47,5.73,5.3l-.54,2.21-10.2-2.49Z"/>
    <path class="st1" d="M850.33,464.14c-.23,3.53-1.01,7.1-2.33,10.7s-1.99,5.47-2,5.62c-.03.43.15.94.55,1.55.39.61.87.93,1.45.97l-.17,2.49-17.07-1.13.15-2.37c4.31-.51,7.94-2.66,10.91-6.43,2.95-3.78,4.56-7.44,4.79-10.98.23-3.59-.52-6.56-2.28-8.88-1.77-2.32-4.2-3.59-7.29-3.8-1.08-.07-2.17.19-3.26.81s-2.24,1.63-3.45,3.02c-1.22,1.41-2.24,2.65-3.08,3.76-.83,1.1-1.96,2.71-3.41,4.82-1.44,2.11-2.49,3.62-3.12,4.51-6.7,9.39-13.5,13.86-20.42,13.39-4.25-.28-7.98-2.49-11.17-6.6-3.2-4.11-4.64-8.59-4.32-13.42.15-2.15.86-4.75,2.15-7.77,1.28-3.02,1.93-4.72,1.96-5.08.06-.86-.64-1.34-2.07-1.44l.17-2.49h16.38l-.15,2.37c-2.98.25-6.13,1.99-9.46,5.23-3.33,3.26-5.09,6.35-5.29,9.31-.22,3.24.65,5.76,2.58,7.55,1.95,1.79,4.07,2.76,6.38,2.93.94.06,1.88-.21,2.82-.8.94-.58,2-1.56,3.18-2.93s2.14-2.57,2.9-3.6c.76-1.04,1.86-2.62,3.3-4.78,1.45-2.14,2.46-3.63,3.01-4.46,3.36-4.78,6.75-8.45,10.18-11.05,3.42-2.6,7.37-3.74,11.85-3.44,5.33.35,9.36,2.79,12.1,7.3,2.73,4.53,3.92,9.57,3.55,15.11Z"/>
  </g>
  <g>
    <path class="st1" d="M34.41,409.06c-.09,0-.18,0-.26-.01-1.83-.14-3.2-1.73-3.05-3.56,7.08-91.14,45.93-177.64,109.4-243.54,1.27-1.32,3.37-1.35,4.69-.08,1.32,1.27,1.36,3.37.08,4.69-62.4,64.8-100.61,149.84-107.56,239.44-.13,1.74-1.59,3.07-3.3,3.07Z"/>
    <path class="st1" d="M816.89,409.06c-1.71,0-3.17-1.33-3.3-3.07-6.96-89.6-45.16-174.64-107.56-239.44-1.28-1.33-1.24-3.42.08-4.69,1.33-1.28,3.42-1.24,4.69.09,63.47,65.91,102.32,152.4,109.39,243.54.14,1.83-1.22,3.42-3.05,3.56-.08,0-.17.01-.26.01Z"/>
  </g>
</svg>